<svg aria-hidden="true" style="position:absolute;width:0;height:0;overflow:hidden" xmlns="http://www.w3.org/2000/svg">
  <defs>
    <!--icons section HEADER-->
      <symbol id="icon-mail-head" viewBox="0 0 32 32">
        <path fill="#757575" style="fill:var(--color1, #757575)" d="M29 4H3a3 3 0 0 0-3 3v18a3 3 0 0 0 3 3h26a3 3 0 0 0 3-3V7a3 3 0 0 0-3-3zm0 2h.4L16 17.8 2.6 6H29zm0 20H3a1 1 0 0 1-1-1V8.2l13.3 11.6a1 1 0 0 0 1.4 0L30 8.2V25c0 .6-.4 1-1 1z"/>
      </symbol>
      <symbol id="icon-tel-head" viewBox="0 0 32 32">
        <path fill="#757575" style="fill:var(--color1, #757575)" d="M23 0H9a3 3 0 0 0-3 3v26a3 3 0 0 0 3 3h14a3 3 0 0 0 3-3V3a3 3 0 0 0-3-3zM9 2h14c.6 0 1 .4 1 1v21H8V3c0-.6.4-1 1-1zm14 28H9a1 1 0 0 1-1-1v-3h16v3c0 .6-.4 1-1 1z"/>
        <path fill="#757575" style="fill:var(--color1, #757575)" d="M10.7 27.5c.4.3.4 1 0 1.3s-1 .4-1.4 0c-.4-.4-.4-1 0-1.3s1-.4 1.4 0z"/>
      </symbol>
    <!--icons section ADVANTAGE-->
      <symbol id="icon-adv-1" viewBox="0 0 32 32">
        <path fill="#212121" style="fill:var(--color2, #212121)" d="m30.8 22.1-8.5-8.5 1-4.6.7.1a2.2 2.2 0 1 0-2-1.4l-5 .6L9 .2a.5.5 0 0 0-.4-.2c-.1 0-.3 0-.4.2L6.7 1.7c-.2.2-.2.5 0 .7l.8.8A15 15 0 0 0 10.2 21v6.7H3.6A2.7 2.7 0 0 0 1 30.4v1c0 .4.2.6.5.6H26c.3 0 .6-.2.6-.5v-1.1c0-1.5-1.2-2.7-2.7-2.7h-6.4V25a15 15 0 0 0 10-1.5l1 .9.3.1.4-.1 1.5-1.5c.2-.3.2-.6 0-.8zM23.3 6.2a1 1 0 1 1 .7 1.9 1 1 0 0 1-.7-1.9zM22 9.7l-.6 3-1.1-1.2L22 9.7zm-.6-.9-1.9 2L18 9.2l3.4-.5zm2.6 20c.9 0 1.6.7 1.6 1.6v.5H2.1v-.5c0-.9.8-1.6 1.6-1.6H24zm-7.5-2.1v1h-5.3v-1h5.3zm-5.3-1.1v-4c0-1.3 1.2-2.4 2.7-2.4s2.6 1 2.6 2.3v4.1h-5.3zm6.4-1.7v-2.4c0-1.8-1.7-3.4-3.7-3.4-1.4 0-2.6.7-3.3 1.8A14 14 0 0 1 8.3 4L27 22.7a13.8 13.8 0 0 1-9.3 1.2zm11.3-.7L7.9 2l.7-.7 8 8 13 13.2-.7.7z"/>
        <path fill="#2196f3" style="fill:var(--color3, #2196f3)" d="M13.9 20.3a1.6 1.6 0 1 0 0 3.2 1.6 1.6 0 1 0 0-3.2zm.3 2-.3.1a.5.5 0 0 1 0-1 .5.5 0 0 1 .3.8z"/>
      </symbol>
      <symbol id="icon-adv-2" viewBox="0 0 32 32">
        <path fill="#212121" style="fill:var(--color2, #212121)" d="M31.3 15.3a15.3 15.3 0 1 0-19.8 14.6h.4l.2-.4 4-12.3a2 2 0 1 0-1-3.6l-5-5.1a.6.6 0 0 0-1 .9l5.2 5a2 2 0 0 0 .5 2.4l-3.7 11.7a14 14 0 1 1 10.6-.4l-.4-1.9a.6.6 0 0 0-1-.3l-3.9 3.4a.6.6 0 0 0 .2 1.1l5 1.6a.6.6 0 0 0 .8-.8l-.4-1.8c5.6-2.4 9.3-8 9.3-14.1zM16 14.7a.6.6 0 1 1 0 1.2.6.6 0 0 1 0-1.2zm2 14.8 2.3-2 .6 3-2.8-1z"/>
        <path fill="#2196f3" style="fill:var(--color3, #2196f3)" d="M15.4 3.2v1.3a.6.6 0 1 0 1.2 0V3.2a.6.6 0 0 0-1.2 0zM3.9 14.7a.6.6 0 0 0 0 1.2h1.3a.6.6 0 1 0 0-1.2H3.9zM28.1 16a.6.6 0 1 0 0-1.3h-1.3a.6.6 0 0 0 0 1.2h1.3z"/>
      </symbol>
      <symbol id="icon-adv-3" viewBox="0 0 32 32">
        <path fill="#2196f3" style="fill:var(--color3, #2196f3)" d="M15 15h1v4.8h-1V15zm4.2 2.1h1v2.7h-1V17zm-8.5 1.6h1v1h-1v-1zm-3.2-.5h1v1.6h-1v-1.6z"/>
        <path fill="#212121" style="fill:var(--color2, #212121)" d="M1.6 28.3h25.6c.9 0 1.6-.7 1.6-1.6v-2.1c0-1-.7-1.6-1.6-1.6h-.5V9.7l3-2.9a1.6 1.6 0 1 0-.8-.8l-2.2 2.2V7c0-1-.8-1.6-1.6-1.6H3.7c-.9 0-1.6.7-1.6 1.6v16h-.5c-.9 0-1.6.7-1.6 1.6v2c0 1 .7 1.7 1.6 1.7zM30.4 4.8a.5.5 0 1 1 0 1.1.5.5 0 0 1 0-1zM3.2 7c0-.3.2-.6.5-.6h21.4c.2 0 .5.3.5.6v2.2l-1 1V8c0-.3-.3-.5-.6-.5H4.8c-.3 0-.5.2-.5.5v13.4c0 .3.2.5.5.5H24c.3 0 .5-.2.5-.5v-9.7l1-1V23H3.3V7zM8 13.9a1.6 1.6 0 1 0 1.1 2.7l1.9 1 .6-.1 4-4.5 3.8 3 .7-.1 3.4-3.2v8.1H5.3V8.6h18.2v2.6l-3.8 3.6-4-3a.5.5 0 0 0-.6.1l-4 4.5-1.5-.7v-.2c0-.9-.7-1.6-1.6-1.6zm.5 1.6a.5.5 0 1 1-1 0 .5.5 0 0 1 1 0zm3.2 8.5h5.4v.6c0 .3-.3.5-.6.5h-4.2a.5.5 0 0 1-.6-.5V24zm-10.6.6c0-.3.2-.6.5-.6h9v.6c0 .8.8 1.6 1.7 1.6h4.2c1 0 1.6-.8 1.6-1.6V24h9c.4 0 .6.3.6.6v2c0 .4-.2.6-.5.6H1.6a.5.5 0 0 1-.5-.5v-2.1z"/>
      </symbol>
      <symbol id="icon-adv-4" viewBox="0 0 32 32">
        <path fill="#2196f3" style="fill:var(--color3, #2196f3)" d="M32 4.5c0-.2-.3-.3-.5-.3l-1.9-.3-.8-1.7c-.2-.4-.8-.4-1 0L27 3.9l-2 .3a.5.5 0 0 0-.2.9L26 6.4l-.3 2c0 .1 0 .3.2.4.2.2.4.2.6 0l1.7-.8 1.7.9a.5.5 0 0 0 .8-.6l-.3-1.9 1.3-1.3c.2-.2.2-.4.2-.6zM29.5 6c-.1 0-.2.2-.1.4l.1 1.1-1-.5a.5.5 0 0 0-.4 0l-1 .5.1-1-.1-.5-.8-.8 1.1-.2c.2 0 .3-.1.4-.3l.5-1 .5 1c0 .2.2.3.4.3l1.1.2-.8.8zm-3.4 14.5h-1v1h1v-1zm0 2.2h-1v1h1v-1zm1.1-1.1h-1v1h1v-1zm-2.2 0h-1v1h1v-1zm-2.6 4.8h-1v1h1v-1zm0 2.1h-1v1h1v-1zm1.1-1h-1.1v1h1v-1zm-2.2 0h-1v1h1v-1zM16 24.3h-1v1h1v-1zm0 2.1h-1v1h1v-1zm1-1.1h-1v1h1v-1zm-2 0h-1.1v1h1v-1zM5.9 6.1H4.8v1h1v-1zm0 2.2H4.8v1h1v-1zM7 7.2H5.8v1h1v-1zm-2.2 0h-1v1h1v-1z"/>
        <path fill="#212121" style="fill:var(--color2, #212121)" d="M24.7 14.2c-.3-.4-.7-.7-1.2-.7-.5-.1-1 0-1.3.3l-1.3 1-1.9 1.4-1.3-.6a7 7 0 0 0-2.9-13.2A7 7 0 0 0 9 13H6l-3.2 1.6-2 1a1.8 1.8 0 0 0 1 3.2c.3 0 .6 0 .8-.2L4 18l2.3-1.2h1.3l-5.4 5.4-1.3 1.3a1.7 1.7 0 0 0 0 2.4 1.7 1.7 0 0 0 2.3 0l1.3-1.3 1.8-1.3.9.9-1.8 1.7-1.3 1.4a1.7 1.7 0 0 0 0 2.3 1.7 1.7 0 0 0 2.3 0l3.5-3.4 1-1 5.2-5.7 3.5.5h.2l.1-.1 3.3-2.1 1.3-1.3c.7-.6.8-1.6.2-2.3zM2.1 17.8h-.5a.7.7 0 0 1-.2-1.2l1.3-.7.4 1.3-1 .6zm3.5-1.9-1.5.8-.5-1.2 2-1v1.4zm15.1-6.6c0 1-.2 1.8-.6 2.6l-4.2-2c0-.5-.3-1-.7-1.3l1.4-4.9a6 6 0 0 1 4.1 5.6zM9 9.3a5.9 5.9 0 0 1 6.7-5.8L14 8.3a1.9 1.9 0 1 0 0 3.7c.7 0 1.3-.4 1.6-1l3.9 1.8A5.9 5.9 0 0 1 8.9 9.3zm6 .8a.8.8 0 0 1-1.6 0 .8.8 0 0 1 1.6 0zm-12.4 15c-.3.3-.7.3-.9 0a.6.6 0 0 1 0-.8l1-1 .8.9-1 1zM5.7 29c-.3.2-.6.2-.9 0a.6.6 0 0 1 0-.9l1-1 .8 1-1 .9zm3.5-3.5-1.8 1.8-.9-.9 1.8-1.7.1-.2V24h-.1l-1.6-1.7h-.1l-.1-.1H6l-1.8 1.4-.9-1 2.4-2.3 4.4 4.3-1 1zm6.8-7a.6.6 0 0 0-.4 0v.1l-4.8 5.2-4.3-4.2 2.8-2.9a.5.5 0 0 0-.4-.9H6.7v-1.6H10a7 7 0 0 0 6.2 2l.1.1 2.5 1 .3 1.6-3-.4zm4 .2-.3-1.6 1.5-1 .9 1.2-2 1.4zm3.8-2.9-.9.8-.9-1.2.8-.6c.2-.2.4-.2.6-.2a.7.7 0 0 1 .4 1.2z"/>
        <path fill="#212121" style="fill:var(--color2, #212121)" d="m13.6 18.5-2.1-2a.5.5 0 0 0-.8 0l-2.1 2a.5.5 0 0 0 0 .8l2.1 2.1a.5.5 0 0 0 .8 0l2.1-2.1a.5.5 0 0 0 0-.8zm-2.5 1.8-1.4-1.4 1.4-1.4 1.4 1.4-1.4 1.4zM17.2 5l-.3 1.1s1.7.5 1.7 2.2h1.1c0-2-1.7-3-2.5-3.2zm2.5 4.3h-1v1h1v-1z"/>
      </symbol>
    <!--icons section TEAM-->
      <symbol id="icon-instagram-wg" viewBox="0 0 32 32">
        <path fill="#afb1b8" style="fill:var(--color4, #afb1b8)" d="M32 9.4c-.1-1.7-.4-2.9-.8-3.9s-1-2-1.8-2.8A7.9 7.9 0 0 0 26.5.8c-1-.4-2.1-.6-3.8-.7A109.5 109.5 0 0 0 5.6.8c-1 .4-2 1-2.9 1.9C2 3.5 1.3 4.5 1 5.5.5 6.5.2 7.7.2 9.4a109.5 109.5 0 0 0 .7 17c.4 1.2 1 2.1 1.8 3 .8.7 1.8 1.4 2.9 1.8 1 .4 2.2.6 3.9.7a117.2 117.2 0 0 0 17-.7 8.2 8.2 0 0 0 4.7-4.7c.4-1 .7-2.2.8-3.9V9.4zm-3 13c0 1.6-.2 2.5-.5 3a5.3 5.3 0 0 1-3 3c-.6.3-1.4.6-3 .6a112.7 112.7 0 0 1-15.9-.5 5 5 0 0 1-1.8-1.2 5 5 0 0 1-1.2-1.9c-.2-.5-.5-1.4-.5-3a112.7 112.7 0 0 1 .5-15.8c.3-.7.7-1.3 1.2-1.9a5 5 0 0 1 1.8-1.1 8 8 0 0 1 3-.6 112.7 112.7 0 0 1 15.9.6 5 5 0 0 1 1.8 1.1 5 5 0 0 1 1.2 1.9c.3.5.5 1.4.6 3a112.7 112.7 0 0 1 0 12.9z"/>
        <path fill="#afb1b8" style="fill:var(--color4, #afb1b8)" d="M16 7.8a8.2 8.2 0 1 0 0 16.4 8.2 8.2 0 0 0 0-16.4zm0 13.5a5.3 5.3 0 1 1 0-10.6 5.3 5.3 0 0 1 0 10.6zM26.5 7.5a2 2 0 1 1-3.8 0 2 2 0 0 1 3.8 0z"/>
      </symbol>
      <symbol id="icon-twitter-wg" viewBox="0 0 32 32">
        <path fill="#afb1b8" style="fill:var(--color4, #afb1b8)" d="M32 6c-1.2.6-2.5 1-3.8 1.1 1.4-.8 2.4-2 3-3.6-1.4.7-2.8 1.3-4.3 1.6a6.6 6.6 0 0 0-11.2 6A18.6 18.6 0 0 1 2.2 4.2a6.6 6.6 0 0 0 2 8.8c-1 0-2-.4-3-.8 0 3.2 2.4 5.9 5.3 6.5a6.5 6.5 0 0 1-3 0 6.6 6.6 0 0 0 6.2 4.6A13.2 13.2 0 0 1 0 26.1 18.5 18.5 0 0 0 28.7 9.5c1.3-1 2.4-2 3.3-3.4z"/>
      </symbol>
      <symbol id="icon-facebook-wg" viewBox="0 0 32 32">
        <path fill="#afb1b8" style="fill:var(--color4, #afb1b8)" d="M21.3 5.3h3v-5C23.6.1 22 0 20 0c-4.2 0-7.1 2.6-7.1 7.5V12H8.2v5.7H13V32h5.7V17.7h4.5l.7-5.7h-5.2V8c0-1.6.4-2.7 2.7-2.7z"/>
      </symbol>
      <symbol id="icon-linkedin-wg" viewBox="0 0 32 32">
        <path fill="#afb1b8" style="fill:var(--color4, #afb1b8)" d="M32 32V20.3c0-5.8-1.2-10.2-8-10.2a7 7 0 0 0-6.2 3.4h-.1v-2.9h-6.4V32H18V21.4c0-2.8.6-5.5 4-5.5s3.5 3.2 3.5 5.7V32H32zM.5 10.6h6.7V32H.5V10.6zM3.8 0C1.8 0 0 1.7 0 3.8s1.7 4 3.8 4a4 4 0 0 0 3.9-4C7.7 1.8 6 0 3.8 0z"/>
      </symbol>
    <!--icons section CLIENTS-->
      <symbol id="icon-client-1" viewBox="0 0 32 32">
        <path fill="#afb1b8" style="fill:var(--color4, #afb1b8)" d="M6.1 0 11 4.5H2v22h23.2V18l4.8 4.6V0H6zM25 17.5 11.5 4.7H25v12.8zm-4.2 5.7h-15V8.5h1v13.7h14v1zM9.3 29.3l-.6 1.2-.5-1.2h-.5l.8 1.6v.9h.4v-1l.8-1.5h-.4zm.7 2.5.2-.6h.9l.2.6h.4l-.9-2.5h-.4l-.9 2.5h.5zm.6-2 .4 1h-.7l.3-1zm2.2 1v.3c0 .2 0 .4.2.5l.5.2c.2 0 .5 0 .7-.2l.1.2h.5l-.4-.5c.2-.1.2-.4.2-.7h-.3l-.1.5-.5-.6.2-.1.2-.3v-.6a.6.6 0 0 0-.5-.2c-.2 0-.4 0-.5.2l-.1.4v.3l.2.3-.4.3zm1.1.5-.3.2-.3-.1-.1-.3c0-.1 0-.2.2-.3l.5.5zm-.4-1-.2-.4.1-.2h.4v.4h-.1l-.2.2zm4 1.3.2-.6h-.4l-.1.3-.4.2-.4-.2a1 1 0 0 1-.2-.6v-.3c0-.2 0-.4.2-.5 0-.2.2-.2.4-.2h.4l.1.4h.4c0-.2 0-.4-.3-.6l-.6-.2a1 1 0 0 0-.9.5v1.5c0 .2.2.3.4.4l.5.1c.3 0 .5 0 .6-.2zm2.4-.4.1-.6V30a1 1 0 0 0-1-.6 1 1 0 0 0-.9.6v1.2l.4.5.5.1.6-.1.3-.5zm-.4-1.3.1.6v.1l-.1.6c-.1.2-.3.3-.5.3l-.4-.3a1 1 0 0 1-.1-.6v-.1l.1-.6c.1-.2.3-.2.4-.2.2 0 .4 0 .5.2z"/>
      </symbol>
      <symbol id="icon-client-2" viewBox="0 0 32 32">
        <path fill="#afb1b8" style="fill:var(--color4, #afb1b8)" d="M14.2 1.8h-.7a14.2 14.2 0 0 0-.8 0 16 16 0 0 0-6.5 1.7h-.3v13.7l.7-.2a23.3 23.3 0 0 1 6.7-1.2v1.8h-.7A20 20 0 0 0 4.2 20V2.5A18.3 18.3 0 0 1 13.5 0h.2a18.1 18.1 0 0 1 3.2.4v1.8a14 14 0 0 0-2.2-.4h-.5zm3.1 1.8h1.2a19.4 19.4 0 0 0 9.3-2.3v17.1a18.3 18.3 0 0 1-12.7 2.1V3.3a14.3 14.3 0 0 0 2.2.3zm8.8.1-.7.3-1.7.5a21.1 21.1 0 0 1-6.3.6h-.5v14h.4a14.2 14.2 0 0 0 5.3-.5c1.1-.2 2.2-.6 3.2-1.1l.3-.1V3.7zM5.4 26a1 1 0 0 0-.7-.3 1 1 0 0 0-.4 0 1 1 0 0 0-.5.6l-.1.4v2.8l.3.3.3.2h.8a1 1 0 0 0 .5-.6v-.6h-.5v.4l-.2.1h-.1l-.1.1a.3.3 0 0 1-.3-.1l-.1-.3v-2.6h.2s.1-.1.2 0c0-.1 0 0 .1 0H5v.6h.7v-.3a1 1 0 0 0-.3-.7zM9 26a1 1 0 0 0-1.4 0 1 1 0 0 0-.2.3l-.1.4v2.7l.3.3.3.2a1 1 0 0 0 .8 0s.2 0 .3-.2l.2-.3.1-.4v-2.7a1 1 0 0 0-.3-.4zm-.3 3a.4.4 0 0 1-.1.3.4.4 0 0 1-.6 0 .4.4 0 0 1 0-.3v-2.3a.4.4 0 0 1 .1-.3.4.4 0 0 1 .6 0 .4.4 0 0 1 .1.3V29zm5.1 1v-4.3h-.6l-.8 2.3-.8-2.3H11V30h.6v-2.6l.6 1.8h.3l.6-1.8V30h.7zm3.4-4-.3-.2h-1.4V30h.6v-1.7h.3l.6-.1.3-.3.2-.4a3 3 0 0 0 0-1l-.3-.5zm-.3 1.3v.2l-.2.2H16v-1.4h.6l.1.2.1.2v.6zm3.1-1.6h-.4l-1 4.3h.6l.2-1h.8l.2 1h.6l-1-4.3zm-.5 2.8.3-1.6.3 1.6h-.6zm4.5-.2-1-2.6h-.5V30h.6v-2.6L24 30h.6v-4.3H24v2.6zm3.7-2.6-.5 1.7-.5-1.7H26l.9 2.5V30h.6v-1.8l.8-2.5h-.6zm-24 5.5H4v.8h.2v-.8h.3V31h-.8v.2zm2.4-.2-.3 1H6v-.2h.4l.1.2h.2l-.4-1h-.2zm0 .6.1-.4.2.4H6zm2.5 0h.2v.1l-.2.1h-.2l-.1-.3c0-.2 0-.3.3-.3s.2 0 .2.1H9c0-.2-.2-.3-.4-.3l-.4.1-.1.2c-.1 0 0 .1 0 .2l.1.4a.5.5 0 0 0 .4.1c.1 0 .3 0 .4-.2v-.3h-.4v.1zM11 31h-.2v1h.7v-.2H11V31zm2.1 0H13v1h.2v-1zm2.1.7-.4-.7h-.2v1h.1v-.7l.4.7h.2v-1h-.1v.7zm1.8-.2h.5v-.1H17v-.2h.5V31h-.7v1h.8v-.2H17v-.3zm4.5-.1H21V31h-.2v1h.2v-.4h.4v.4h.2v-1h-.2v.4zm1.8.1h.5v-.1h-.5v-.2h.6V31H23v1h.8v-.2h-.6v-.3zm2.6 0c.1 0 .2 0 .2-.2a.2.2 0 0 0 0-.2l-.4-.1h-.4v1h.2v-.4h.2l.3.4h.2l-.1-.2-.2-.3zm-.2 0h-.2v-.3h.4v.1l-.2.1zm2.1 0h.5v-.1h-.5v-.2h.5V31h-.7v1h.7v-.2h-.5v-.3z"/>
      </symbol>
      <symbol id="icon-client-3" viewBox="0 0 32 32">
        <path fill="#afb1b8" style="fill:var(--color4, #afb1b8)" d="m5.3 30.3.2.2-.5.2c-.1.1-.4.2-.6.1h-.6l-.4-.3-.3-.4a1.4 1.4 0 0 1 0-1l.3-.5.5-.3a1.8 1.8 0 0 1 1.2 0l.4.3-.2.1H5a1.1 1.1 0 0 0-.5-.2l-.4.1a1 1 0 0 0-.6.5v.9l.2.3.3.2h.7a1 1 0 0 0 .5-.2zm4.4-.8v.6l-.4.4-.4.2c-.4.2-.8.2-1.2 0l-.4-.2c-.2-.1-.3-.3-.3-.4-.2-.4-.2-.7 0-1 0-.2.1-.4.3-.5l.4-.3H9l.4.3a1.2 1.2 0 0 1 .4 1zm-.4 0v-.4a.9.9 0 0 0-.6-.5H8a1 1 0 0 0-.4.2l-.2.3v.9a.9.9 0 0 0 .6.5h.8l.4-.2.2-.3v-.5zm3.5.5a1.4 1.4 0 0 1 .1-.1l1-1.6h.5v2.5H14v-2l-1 1.6h-.3l-1-1.6V31h-.4v-2.6h.4l1 1.6h.1zm3.7-.1v1h-.4v-2.6h1.4l.3.2.2.2v.4a.7.7 0 0 1-.2.5 1 1 0 0 1-.3.2h-1zm0-.3h.8l.2-.2.1-.1s.1-.2 0-.2c.1-.1 0-.2 0-.2v-.2a.8.8 0 0 0-.6-.2h-.5v1zm5.2 1.2h-.4L21 30h-1.3l-.3.6v.1H19l1.2-2.5h.4l1.1 2.5zm-1.9-1H21l-.4-1-.1-.2v.1l-.1.1-.5 1zm3.6-1.5 1.8 2v-2h.3v2.5h-.2a.2.2 0 0 1-.1 0l-1.7-2v2H23v-2.5h.4zm5 1.5v1H28v-1l-1-1.5h.4l.7 1v.2h.1l.1-.2.7-1h.4l-1 1.5zM12.6 24h.5c2.6-1 4.9-2.6 6.4-4.7s2.3-4.6 2.2-7L19 9.6c.5 2.7.3 5.4-.8 8s-3 4.7-5.5 6.3z"/>
        <path fill="#afb1b8" style="fill:var(--color4, #afb1b8)" d="M11.6 23.9c2.7-1.6 4.7-4 5.8-6.6s1.3-5.5.6-8.2l-4.2-3.6A15.3 15.3 0 0 1 11.6 24zm13.9-8.7a13 13 0 0 1-4.8 7l-2.3 1.4c2-.5 3.8-1.4 5.3-2.6s2.7-2.7 3.5-4.4l-1.7-1.4z"/>
        <path fill="#afb1b8" style="fill:var(--color4, #afb1b8)" d="m24.9 14.8-2.4-2.1c0 2.4-.8 4.6-2.2 6.7S16.8 23 14.5 24H16c2.2-.9 4.2-2.1 5.7-3.8s2.6-3.5 3-5.5zM12 4 9 1.6c-2.3.8-4.5 2.3-6 4.2S.5 10.1.5 12.4c0 2.6 1 5.2 2.8 7.2s4.5 3.5 7.4 4.2c2.6-2.8 4.1-6.2 4.3-9.7S14.2 7 12 4zm19.4 10.4c0-3.1-1.4-6-4-8.2a14.6 14.6 0 0 0-14.2-2.7l17.3 15c.6-1.3.9-2.7.9-4.1z"/>
      </symbol>
      <symbol id="icon-client-4" viewBox="0 0 32 32">
        <path fill="#afb1b8" style="fill:var(--color4, #afb1b8)" d="M5 13c-1 0-1.7.7-1.7 1.5S4 15.9 5 15.9s1.7-.6 1.7-1.4C6.7 13.7 6 13 5 13zm12-.4c0-1.2-.5-2.2-1.4-3s-2-1.2-3.3-1.2c-1.3 0-2.5.4-3.4 1.2s-1.3 1.8-1.3 3v6.1s9.4-1 9.4-6.1zM0 20.7c0 .8.3 1.5 1 2s1.4 1 2.3 1c.9 0 1.7-.4 2.3-1s1-1.2 1-2v-4.2S0 17 0 20.7zm3.3.8-.5-.1a.6.6 0 0 1-.3-.4v-.4c0-.1 0-.3.2-.4L3 20h.5l.4.3a.7.7 0 0 1-.1 1l-.3.1h-.3zM10 21h-.7v.7H9v-1.6h1v.3h-.7v.4h.6v.3zm1.5 0v.4l-.3.3h-.7l-.2-.3-.1-.4v-.5l.3-.3.4-.1h.3l.3.4v.4zm-.3-.1v-.4l-.3-.1-.3.1-.1.4v.4l.4.2s.2 0 .2-.2l.1-.3v-.1zm1.4.4v-.1l-.3-.1-.3-.2-.2-.4v-.2l.2-.1a.8.8 0 0 1 .7 0l.2.1v.3h-.3v-.2h-.4l-.1.1v.2h.3l.4.3.1.3-.1.3-.4.1H12l-.2-.2v-.3h.2c0 .2.1.3.4.3h.1l.1-.2zm1.8-1h-.5v1.4h-.3v-1.3H13V20h1.3v.3zm1.1.7H15v.5h.7v.2h-1v-1.6h1v.3H15v.4h.6v.2zm1 .1h-.3v.6h-.4v-1.6h.6l.5.1.1.4v.3l-.3.2.4.6h-.4l-.3-.6zm-.3-.2h.4v-.4l-.2-.1h-.2v.5zm2 .3v.5h-.4v-1.6h1l.2.3v.6l-.5.2h-.3zm0-.3h.5v-.4l-.2-.1h-.3v.5zm2 .1h-.6v.5h.8v.2h-1.1v-1.6h1v.3h-.7v.4h.7v.2zm1.6-.6h-.5v1.3H21v-1.3h-.5V20h1.3v.3zm1.2.6h-.7v.5h.8v.2H22v-1.6h1v.3h-.7v.4h.7v.2zm.9.1h-.3v.6h-.3v-1.6h.6l.4.1.2.4-.1.3-.2.2.3.6h-.3l-.3-.6zm-.3-.2h.5v-.4l-.2-.1h-.3v.5zm2 .4-.1-.1-.3-.1-.2-.2c-.2 0-.3-.2-.3-.4v-.2l.3-.1a.8.8 0 0 1 .6 0l.2.1v.3h-.3v-.2H25v.3h.2l.4.3.2.3c0 .1 0 .2-.2.3l-.4.1h-.4c-.2 0-.1-.1-.2-.2v-.3h.3c0 .2 0 .3.3.3h.2v-.2z"/>
      </symbol>
      <symbol id="icon-client-5" viewBox="0 0 32 32">
        <path fill="#afb1b8" style="fill:var(--color4, #afb1b8)" d="m2.4 23.7.2.5v.4l-.3.3-.8.2H0v-3.2h1.4c.3 0 .6.1.8.3l.3.2v.3l-.1.5-.5.3.5.2zm-1.7-.4h.6l.4-.1.1-.2c.1 0 0 0 0-.1v-.2l-.1-.2a.6.6 0 0 0-.4 0H.7v.8zm1 1.2.2-.2V24l-.1-.2a.7.7 0 0 0-.5 0H.7v.8h.6l.5-.1zm3.7.5-.8-1h-.3v1h-.7v-3.2h1.3l.9.3.3.6c0 .2 0 .5-.2.7l-.6.3.8 1.3h-.7zm-1.1-1.6h.5c.4 0 .6-.1.6-.4v-.2l-.1-.2a.7.7 0 0 0-.5-.1h-.5v1zm4.8 1.1H7.8l-.3.6h-.7L8.1 22h.8l1.2 3h-.7l-.3-.5zM9 24l-.5-1.3L8 24h1zm4.9 1h-.7l-1.5-2v2H11v-3h.7l1.5 2.1v-2.2h.7v3.2zm3.9-.7c-.1.3-.4.5-.6.6l-1 .2H15v-3.2h1.2l1 .2.6.6.2.8-.2.8zm-.8 0c.2-.2.3-.5.3-.8s-.1-.5-.3-.7c-.2-.2-.5-.3-.8-.3h-.5v2h.5c.3 0 .6 0 .8-.2zM9.6 4.5s8.8 3 8.6 7.4v7.5s-8.8-3-8.6-7.5V4.5zm16.5 13.2c1.7-1 3.6-1.7 5.7-2v-2.3c-2.4.9-4.3 2.4-5.7 4.3z"/>
        <path fill="#afb1b8" style="fill:var(--color4, #afb1b8)" d="M25.1 18.4c1.4-2.5 3.8-4.5 6.7-5.5V6.2s-12.6 4.4-12.4 10.7v10.6L21 27v-1a11 11 0 0 1 4.2-7.6z"/>
        <path fill="#afb1b8" style="fill:var(--color4, #afb1b8)" d="M24 22.4c0-.8.1-1.5.4-2.2a9.9 9.9 0 0 0-2.7 6.4l2.4-1.2c-.2-1-.3-2-.2-3zm.4 0c0 1 0 1.9.2 2.8 3.4-1.9 7.3-4.8 7.2-8.3v-.3c-2.5.2-4.8 1.2-6.6 2.8-.4 1-.7 2-.8 3z"/>
      </symbol>
      <symbol id="icon-client-6" viewBox="0 0 32 32">
        <path fill="#afb1b8" style="fill:var(--color4, #afb1b8)" d="M16.1 15.6a1 1 0 0 1-.2-.6v-1l.2-.7c.1-.1.4-.3.7-.3.4 0 .6.1.7.2.2.2.2.4.2.6v.3h-.6v-.6h-.5v1.9h.1c.1 0 .1.1.2 0 0 .1 0 0 .1 0l.1-.1v-.5h.6v.2c0 .2 0 .5-.2.6-.1.2-.3.3-.7.3s-.5-.1-.7-.3zm2.4 0c-.2-.1-.2-.3-.2-.6v-1c0-.4 0-.6.2-.7l.7-.3c.3 0 .5.1.7.3s.2.3.2.6v1c0 .4 0 .6-.2.7s-.4.3-.7.3c-.3 0-.6-.1-.7-.3zm1-.2v-1.9H19l-.2.3v1.3l.1.3a.4.4 0 0 0 .3.1h.1l.1-.1zm1.3-2.4h.6l.4 2 .5-2h.6v2.8h-.4V14l-.5 2h-.3l-.5-2v2h-.5v-3zm2.8 0h1c.5 0 .7.3.7.9 0 .5-.2.7-.8.7h-.3v1.2h-.6v-2.7zm.8 1.3h.2l.1-.1.1-.3v-.3l-.1-.1h-.5v.8h.2zm1.8-1.3h.6l.6 2.8H27l-.1-.6h-.6l-.1.6h-.6l.7-2.7zm.5 1.9-.2-1.2-.2 1.2h.4zM28 13h.4l.7 1.6v-1.5h.5v2.7h-.4l-.7-1.6v1.6H28v-2.7zm2.7 1.8-.6-1.7h.5l.4 1 .4-1h.5l-.6 1.7v1h-.6v-1zM17 17v.2h-.4v1h-.2v-1h-.5V17H17zm1.5 1.3h-.2l-.1-.3h-.7l-.1.3h-.2l.5-1.3h.2l.6 1.3zm-1-.5h.6l-.2-.5v-.1l-.1.1-.2.5zm2 .4h.1a.7.7 0 0 0 .2 0v-.4h-.2v-.1h.5v.5a.8.8 0 0 1-.3 0 1 1 0 0 1-.3.1h-.3L19 18l-.2-.2v-.5l.2-.2.2-.1a1 1 0 0 1 .5 0 .8.8 0 0 1 .2 0h.1v.2h-.1a.6.6 0 0 0-.3-.1h-.3l-.2.1-.1.2v.4l.1.1.2.1h.2zm1.9-.1h.6v.2h-.8V17h.2v1.1zm1.2.2h-.2V17h.2v1.3zm.8-1.3.9 1v-1h.1v1.3h-.1l-.9-1v1h-.2V17h.1zm2.5 0v.2h-.7v.4h.6v.1h-.6v.5h.7-1V17h1zM5.2 9.2l8.7 2.2v7.5l-8.7-2.1V9.2zm-.6-.6v8.6l10 2.4V11l-10-2.4z"/>
        <path fill="#afb1b8" style="fill:var(--color4, #afb1b8)" d="M10 23.6 0 21v-8.5L10 15v8.6z"/>
        <path fill="#afb1b8" style="fill:var(--color4, #afb1b8)" d="m4.8 9.1 8.6 2.2-3.7 3.2-8.6-2.2 3.7-3.2zm-.2-.5-4.6 4L10 15l4.5-4-9.9-2.4zM10.5 23l4-3.4-4-1v4.5z"/>
      </symbol>
    <!--icons section FOOTER-->
      <symbol id="icon-instagram-foot" viewBox="0 0 32 32">
        <path fill="#fff" style="fill:var(--color5, #fff)" d="M32 9.4c-.1-1.7-.4-2.9-.8-3.9s-1-2-1.8-2.8A7.9 7.9 0 0 0 26.5.8c-1-.4-2.1-.6-3.8-.7A109.5 109.5 0 0 0 5.6.8c-1 .4-2 1-2.9 1.9C2 3.5 1.3 4.5 1 5.5.5 6.5.2 7.7.2 9.4a109.5 109.5 0 0 0 .7 17c.4 1.2 1 2.1 1.8 3 .8.7 1.8 1.4 2.9 1.8 1 .4 2.2.6 3.9.7a117.2 117.2 0 0 0 17-.7 8.2 8.2 0 0 0 4.7-4.7c.4-1 .7-2.2.8-3.9V9.4zm-3 13c0 1.6-.2 2.5-.5 3a5.3 5.3 0 0 1-3 3c-.6.3-1.4.6-3 .6a112.7 112.7 0 0 1-15.9-.5 5 5 0 0 1-1.8-1.2 5 5 0 0 1-1.2-1.9c-.2-.5-.5-1.4-.5-3a112.7 112.7 0 0 1 .5-15.8c.3-.7.7-1.3 1.2-1.9a5 5 0 0 1 1.8-1.1 8 8 0 0 1 3-.6 112.7 112.7 0 0 1 15.9.6 5 5 0 0 1 1.8 1.1 5 5 0 0 1 1.2 1.9c.3.5.5 1.4.6 3a112.7 112.7 0 0 1 0 12.9z"/>
        <path fill="#fff" style="fill:var(--color5, #fff)" d="M16 7.8a8.2 8.2 0 1 0 0 16.4 8.2 8.2 0 0 0 0-16.4zm0 13.5a5.3 5.3 0 1 1 0-10.6 5.3 5.3 0 0 1 0 10.6zM26.5 7.5a2 2 0 1 1-3.8 0 2 2 0 0 1 3.8 0z"/>
      </symbol>
      <symbol id="icon-twitter-foot" viewBox="0 0 32 32">
        <path fill="#fff" style="fill:var(--color5, #fff)" d="M32 6c-1.2.6-2.5 1-3.8 1.1 1.4-.8 2.4-2 3-3.6-1.4.7-2.8 1.3-4.3 1.6a6.6 6.6 0 0 0-11.2 6A18.6 18.6 0 0 1 2.2 4.2a6.6 6.6 0 0 0 2 8.8c-1 0-2-.4-3-.8 0 3.2 2.4 5.9 5.3 6.5a6.5 6.5 0 0 1-3 0 6.6 6.6 0 0 0 6.2 4.6A13.2 13.2 0 0 1 0 26.1 18.5 18.5 0 0 0 28.7 9.5c1.3-1 2.4-2 3.3-3.4z"/>
      </symbol>
      <symbol id="icon-facebook-foot" viewBox="0 0 32 32">
        <path fill="#fff" style="fill:var(--color5, #fff)" d="M21.3 5.3h3v-5C23.6.1 22 0 20 0c-4.2 0-7.1 2.6-7.1 7.5V12H8.2v5.7H13V32h5.7V17.7h4.5l.7-5.7h-5.2V8c0-1.6.4-2.7 2.7-2.7z"/>
      </symbol>
      <symbol id="icon-linkedin-foot" viewBox="0 0 32 32">
        <path fill="#fff" style="fill:var(--color5, #fff)" d="M32 32V20.3c0-5.8-1.2-10.2-8-10.2a7 7 0 0 0-6.2 3.4h-.1v-2.9h-6.4V32H18V21.4c0-2.8.6-5.5 4-5.5s3.5 3.2 3.5 5.7V32H32zM.5 10.6h6.7V32H.5V10.6zM3.8 0C1.8 0 0 1.7 0 3.8s1.7 4 3.8 4a4 4 0 0 0 3.9-4C7.7 1.8 6 0 3.8 0z"/>
      </symbol>
  </defs>
</svg>
